<?xml version='1.0' encoding='UTF-8' standalone='no'?>
<svg xmlns="http://www.w3.org/2000/svg" version="1.2" x="0" width="0.36998in" id="svg2" y="0" gorn="0" viewBox="0 0 36.998 62.317"  height="0.62317in">
    <desc >
        <referenceFile >LM2575_drawing.svg</referenceFile>
    </desc>
    <metadata id="metadata48" >
        <rdf:RDF xmlns:rdf="http://www.w3.org/1999/02/22-rdf-syntax-ns#">
            <cc:Work rdf:about="" xmlns:cc="http://creativecommons.org/ns#" xmlns:rdf="http://www.w3.org/1999/02/22-rdf-syntax-ns#">
                <dc:format xmlns:dc="http://purl.org/dc/elements/1.1/">image/svg+xml</dc:format>
                <dc:type xmlns:dc="http://purl.org/dc/elements/1.1/" rdf:resource="http://purl.org/dc/dcmitype/StillImage" xmlns:rdf="http://www.w3.org/1999/02/22-rdf-syntax-ns#"/>
            </cc:Work>
        </rdf:RDF>
    </metadata>
    <defs id="defs46" />
    <g id="breadboard" gorn="0.3" >
        <line fill="none" style="stroke-linecap:round" id="line3380" y1="55.650337" stroke-width="3" stroke="#8c8c8c" y2="65.650337" gorn="0.3.0"  x1="11.778884" x2="11.778884"/>
        <line fill="none" style="stroke-linecap:round" id="line3382" y1="55.650337" stroke-width="3" stroke="#8c8c8c" y2="65.650337" gorn="0.3.1"  x1="26.109985" x2="26.109985"/>
        <rect style="fill:#8c8c8c" width="3" x="10.278887" id="rect3384" y="46.529999" gorn="0.3.2"  height="15.787"/>
        <rect style="fill:#8c8c8c" width="3" x="24.609985" id="rect3386" y="46.529999" gorn="0.3.3"  height="15.787"/>
        <g transform="translate(2.7778876,0)" >
            <g >
                <polygon style="fill:#8c8c8c" id="polygon3388" points="12.501,56.675 10.261,57.675 7.741,57.675 5.501,56.675 5.501,44.495 12.501,44.495 " gorn="0.3.4.0.0" />
            </g>
        </g>
        <g transform="translate(7.111,0)" >
            <g >
                <polygon style="fill:#8c8c8c" id="polygon3390" points="15.499,56.675 15.499,44.495 22.499,44.495 22.499,56.675 20.259,57.675 17.74,57.675 " gorn="0.3.5.0.0" />
            </g>
        </g>
        <rect style="fill:none" id="connector0pin" x="3.1333315" width="3" y="60" gorn="0.3.6"  height="1"/>
        <rect style="fill:none" x="10.277777" width="3" id="connector2pin" y="60" gorn="0.3.7"  height="1"/>
        <rect style="fill:none" x="17.533333" width="3" y="60" gorn="0.3.8"  height="1"/>
        <rect style="fill:none" id="connector3pin" x="24.566668" width="3" y="60" gorn="0.3.9"  height="1"/>
        <rect style="fill:none" id="connector4pin" x="31.6" width="3" y="60" gorn="0.3.10"  height="1"/>
        <line fill="none" style="stroke-linecap:round" id="connector0leg" y1="55.650337" stroke-width="3" stroke="#8c8c8c" y2="65.650337" gorn="0.3.11"  x1="4.6677775" x2="4.6677775"/>
        <line fill="none" style="stroke-linecap:round" id="connector1pin" y1="55.650337" stroke-width="3" stroke="#8c8c8c" y2="65.650337" gorn="0.3.12"  x1="18.999001" x2="18.999001"/>
        <line fill="none" style="stroke-linecap:round" id="connector2leg" y1="55.650337" stroke-width="3" stroke="#8c8c8c" y2="65.650337" gorn="0.3.13"  x1="33.219101" x2="33.219101"/>
        <path fill="#BFBCBC" d="M33.997,0.5H18.999v2.502c4.354,0,7.875,2.471,7.875,5.517c-0.002,3.044-3.523,5.513-7.875,5.513v8.087   h14.998V0.5z" id="path15" gorn="0.3.14" />
        <path fill="#808080" d="M11.126,8.514C11.126,5.467,14.649,3,18.999,3V0.499H4.001V22.11h14.998v-8.086   C14.649,14.026,11.126,11.559,11.126,8.514z" id="path17" gorn="0.3.15" />
        <rect style="fill:#8c8c8c" id="rect4" x="3.1677749" width="3" y="46.529999" gorn="0.3.16"  height="15.787"/>
        <rect fill="#8C8C8C" x="17.499" width="3" y="46.53" gorn="0.3.17"  height="15.787"/>
        <rect style="fill:#8c8c8c" id="rect8" x="31.719101" width="3" y="46.529999" gorn="0.3.18"  height="15.787"/>
        <polygon fill="#CCCCCC" id="polygon10" points="0.501,4.525 0.501,17.865 4.001,17.865 4.001,0.5  " gorn="0.3.19" />
        <polygon fill="#999999" id="polygon12" points="37.497,4.525 33.997,0.5 33.997,17.865 37.497,17.865  " gorn="0.3.20" />
        <g transform="translate(-4.3332242,0)" >
            <g >
                <polygon style="fill:#8c8c8c" id="polygon21" points="5.501,56.675 5.501,44.495 12.501,44.495 12.501,56.675 10.261,57.675 7.741,57.675 " gorn="0.3.21.0.0" />
            </g>
        </g>
        <polygon fill="#8C8C8C" id="polygon23" points="22.499,56.675 20.259,57.675 17.74,57.675 15.499,56.675 15.499,44.495    22.499,44.495  " gorn="0.3.22" />
        <g transform="translate(4.2221117,0)" >
            <g >
                <polygon style="fill:#8c8c8c" id="polygon25" points="27.739,57.675 25.499,56.675 25.499,44.495 32.497,44.495 32.497,56.675 30.257,57.675 " gorn="0.3.23.0.0" />
            </g>
        </g>
        <rect fill="#141414" x="25.499" width="12" id="rect27" y="31.522" gorn="0.3.24"  height="22.222"/>
        <rect fill="#333333" x="0.501" width="12" id="rect29" y="31.522" gorn="0.3.25"  height="22.222"/>
        <path fill="#262626" d="M0.501,39.659v7.176c2.83,0,5.125-1.604,5.125-3.588   C5.626,41.266,3.331,39.659,0.501,39.659z" id="path40_1_" gorn="0.3.26" />
        <path d="M37.497,39.659c-2.83,0-5.125,1.604-5.125,3.588c0,1.979,2.295,3.588,5.125,3.588V39.659z" id="path47" gorn="0.3.27" />
        <path fill="#1A1A1A" d="M0.501,31.522v9.888c2.83,0,5.125,1.606,5.125,3.588c0,1.982-2.295,3.588-5.125,3.588v5.158h36.998V31.522   H0.501z M37.497,48.585c-2.83,0-5.125-1.604-5.125-3.588c0-1.979,2.295-3.588,5.125-3.588V48.585z" id="path33" gorn="0.3.28" />
        <rect id="rect49" x="0.501" width="36.998" y="26.872" gorn="0.3.29"  height="4.649"/>
        <rect fill="#333333" id="rect51" x="0.501" width="36.998" y="21.124" gorn="0.3.30"  height="5.748"/>
        <rect fill="#B2B2B2" id="rect53" x="4.001" width="29.998" y="0.5" gorn="0.3.31"  height="4.25"/>
        <path fill="#8C8C8C" d="M33.997,3.759H4.001l-3.5,4.024v13.34h36.996V7.783L33.997,3.759z M18.999,17.286   c-4.35,0-7.873-2.468-7.873-5.513c0-3.044,3.523-5.511,7.873-5.511c4.354,0,7.875,2.468,7.875,5.511   C26.872,14.817,23.351,17.286,18.999,17.286z" id="path55" gorn="0.3.32" />
        <g fill="#663300" style="font-style:normal;font-weight:normal;line-height:125%;font-family:Droid Sans;letter-spacing:0px;word-spacing:0px;stroke-linecap:butt;stroke-linejoin:miter;" font-size="12.3457" id="text3392" stroke-opacity="1" stroke-width="1.11111" stroke="none" gorn="0.3.33"  fill-opacity="1">
            <path d="m 3.7119525,33.089293 0.8219402,0 0,5.383301 2.9581708,0 0,0.691732 -3.780111,0 0,-6.075033 z" style="font-size:8.33333397px;fill:#663300;fill-opacity:1" id="path3369" gorn="0.3.33.0" />
            <path d="m 8.3506249,33.089293 1.2247722,0 1.5502929,4.134115 1.558431,-4.134115 1.224773,0 0,6.075033 -0.801596,0 0,-5.334473 -1.566569,4.166667 -0.826009,0 -1.566569,-4.166667 0,5.334473 -0.7975261,0 0,-6.075033 z" style="font-size:8.33333397px;fill:#663300;fill-opacity:1" id="path3371" gorn="0.3.33.1" />
            <path d="m 16.30961,38.472594 2.868652,0 0,0.691732 -3.857422,0 0,-0.691732 q 0.467936,-0.484212 1.273601,-1.298015 0.809733,-0.817871 1.017252,-1.053873 0.394694,-0.443522 0.549317,-0.748698 0.158691,-0.309245 0.158691,-0.606283 0,-0.484212 -0.341797,-0.789388 -0.337728,-0.305176 -0.882975,-0.305176 -0.386556,0 -0.817871,0.134278 -0.427246,0.134277 -0.915528,0.406901 l 0,-0.830079 q 0.49642,-0.199381 0.927735,-0.301106 0.431315,-0.101726 0.789388,-0.101726 0.94401,0 1.505534,0.472006 0.561523,0.472005 0.561523,1.261393 0,0.374349 -0.142415,0.712077 -0.138346,0.333659 -0.508626,0.789388 -0.101726,0.118001 -0.646973,0.683594 -0.545248,0.561523 -1.538086,1.574707 z" style="font-size:8.33333397px;fill:#663300;fill-opacity:1" id="path3373" gorn="0.3.33.2" />
            <path d="m 20.915731,33.089293 3.226726,0 0,0.691732 -2.473959,0 0,1.489257 q 0.179037,-0.06104 0.358073,-0.08952 0.179037,-0.03255 0.358073,-0.03255 1.017253,0 1.611328,0.557455 0.594076,0.557454 0.594076,1.509603 0,0.980631 -0.610352,1.525879 -0.610351,0.541178 -1.721191,0.541178 -0.382487,0 -0.78125,-0.0651 -0.394694,-0.0651 -0.817872,-0.195313 l 0,-0.826009 q 0.366211,0.199382 0.756836,0.297038 0.390625,0.09766 0.82601,0.09766 0.703938,0 1.114909,-0.37028 0.41097,-0.37028 0.41097,-1.005045 0,-0.634766 -0.41097,-1.005046 -0.410971,-0.37028 -1.114909,-0.37028 -0.32959,0 -0.65918,0.07324 -0.325521,0.07324 -0.667318,0.227865 l 0,-3.051758 z" style="font-size:8.33333397px;fill:#663300;fill-opacity:1" id="path3375" gorn="0.3.33.3" />
            <path d="m 26.006062,33.089293 3.90625,0 0,0.349935 -2.205404,5.725098 -0.858561,0 2.075196,-5.383301 -2.917481,0 0,-0.691732 z" style="font-size:8.33333397px;fill:#663300;fill-opacity:1" id="path3377" gorn="0.3.33.4" />
            <path d="m 31.527712,33.089293 3.226725,0 0,0.691732 -2.473958,0 0,1.489257 q 0.179036,-0.06104 0.358072,-0.08952 0.179037,-0.03255 0.358073,-0.03255 1.017253,0 1.611329,0.557455 0.594075,0.557454 0.594075,1.509603 0,0.980631 -0.610351,1.525879 -0.610352,0.541178 -1.721192,0.541178 -0.382487,0 -0.78125,-0.0651 -0.394694,-0.0651 -0.817871,-0.195313 l 0,-0.826009 q 0.366211,0.199382 0.756836,0.297038 0.390625,0.09766 0.826009,0.09766 0.703939,0 1.114909,-0.37028 0.41097,-0.37028 0.41097,-1.005045 0,-0.634766 -0.41097,-1.005046 -0.41097,-0.37028 -1.114909,-0.37028 -0.32959,0 -0.65918,0.07324 -0.325521,0.07324 -0.667317,0.227865 l 0,-3.051758 z" style="font-size:8.33333397px;fill:#663300;fill-opacity:1" id="path3379" gorn="0.3.33.5" />
        </g>
    </g>
</svg>
